<svg xmlns="http://www.w3.org/2000/svg" width="980" height="420" viewBox="0 0 980 420" role="img" aria-labelledby="title desc">
  <!-- Static guide image for Launching Video Maker special features. -->
  <title id="title">Special feature cues in a launching display</title>
  <desc id="desc">A screenshot-style guide showing crosshair, rail, tunnel, fracture, and trajectory vector cues.</desc>
  <rect width="980" height="420" fill="#eee7d8"/>
  <rect x="28" y="28" width="924" height="338" rx="0" fill="#0b1917" stroke="#1f1c18" stroke-width="5"/>
  <line x1="86" y1="184" x2="894" y2="184" stroke="#d7c69b" stroke-width="3" opacity=".58"/>
  <line x1="474" y1="48" x2="474" y2="106" stroke="#f3f0e7" stroke-width="3" opacity=".9"/>
  <line x1="474" y1="122" x2="474" y2="180" stroke="#f3f0e7" stroke-width="3" opacity=".9"/>
  <line x1="416" y1="114" x2="458" y2="114" stroke="#f3f0e7" stroke-width="3" opacity=".9"/>
  <line x1="490" y1="114" x2="532" y2="114" stroke="#f3f0e7" stroke-width="3" opacity=".9"/>
  <rect x="446" y="142" width="108" height="84" fill="#eee7d8" opacity=".78"/>
  <circle cx="278" cy="184" r="36" fill="#df4737" stroke="#8f2d24" stroke-width="6"/>
  <circle cx="608" cy="184" r="36" fill="#28c46a" stroke="#1c7f46" stroke-width="6"/>
  <path d="M594 168 L620 198 M619 169 L594 198 M606 160 L606 207" stroke="#101010" stroke-width="4" stroke-linecap="round" opacity=".74"/>
  <line x1="608" y1="184" x2="800" y2="137" stroke="#d9ac3f" stroke-width="5" stroke-linecap="round"/>
  <path d="M800 137 L777 130 L784 153 Z" fill="#d9ac3f"/>
  <circle cx="608" cy="184" r="8" fill="#d9ac3f"/>
  <circle cx="800" cy="137" r="12" fill="#d9ac3f" stroke="#1f1c18" stroke-width="3"/>
  <text x="60" y="396" font-family="Avenir Next, Helvetica, Arial, sans-serif" font-size="22" font-weight="800" fill="#1f1c18">Special features are stimulus-visible cues. Use them only when the cue is part of the condition.</text>
</svg>
